# xmcd CD database file
#
# Track frame offsets:
#	150
#	20100
#	38047
#	57050
#	80112
#	98400
#	114847
#	134812
#	155337
#	175465
#	193795
#	213062
#
# Disc length: 3146 seconds
#
# Revision: 1
# Processed by: cddbd v1.5PL3 Copyright (c) Steve Scherf et al.
# Submitted via: CDex 1.51
#
DISCID=9e0c480c
DTITLE=Average White Band - Soul Tattoo
DYEAR=1996
DGENRE=Jazz+Funk
TTITLE0=Soul Mine
TTITLE1=Back To Basics
TTITLE2=Livin' On Borrowed Time
TTITLE3=Every Beat Of My Heart
TTITLE4=When We Get Down On It
TTITLE5=Oh Maceo
TTITLE6=Do Ya Really
TTITLE7=I Wanna Be Loved
TTITLE8=No Easy Way To Say Goodbye
TTITLE9=Love Is The Bottom Line
TTITLE10=Welcome To The Real World
TTITLE11=Window To Your Soul
EXTD=YEAR: 1996
EXTT0=
EXTT1=
EXTT2=
EXTT3=
EXTT4=
EXTT5=
EXTT6=
EXTT7=
EXTT8=
EXTT9=
EXTT10=
EXTT11=
PLAYORDER=
